<svg width="170" height="22" viewBox="0 0 170 22" fill="none" xmlns="http://www.w3.org/2000/svg">
<path d="M24.7185 10.7228V17.0781C24.7185 19.7824 22.425 21.973 19.5936 21.973H10.3065C9.14556 21.973 8.2395 21.0805 8.2395 19.9988C8.2395 18.89 9.17388 18.0246 10.3065 18.0246H18.4893C19.6502 18.0246 20.5563 17.1321 20.5563 16.0504V10.6146C20.5563 9.99263 20.2448 9.39766 19.7352 9.01905L14.1289 4.98955C13.0813 4.23233 11.6089 4.23233 10.5613 4.98955L5.03997 8.96497C4.47368 9.37062 4.13391 10.0197 4.13391 10.7228V20.0258C4.13391 21.1346 3.19953 22 2.06695 22C0.906061 22 0 21.1076 0 20.0258V10.9121C0 8.85679 1.01932 6.9367 2.71819 5.71973L4.16222 4.69207L8.91905 1.28458L9.42871 0.933006C11.1842 -0.311002 13.5909 -0.311002 15.3464 0.933006L15.8561 1.28458L20.6129 4.71912L22.1702 5.85495C23.7558 6.96374 24.7185 8.80271 24.7185 10.7228Z" fill="#F4683F"/>
<path d="M12.3734 16.5101C11.2125 16.5101 10.2498 15.5906 10.2498 14.4818V12.0479C10.2498 10.9391 11.2125 10.0196 12.3734 10.0196C13.5343 10.0196 14.497 10.9391 14.497 12.0479V14.4818C14.497 15.6177 13.5343 16.5101 12.3734 16.5101Z" fill="#333333"/>
<path d="M139.335 17.7542C140.164 17.7542 140.836 17.1125 140.836 16.3209C140.836 15.5293 140.164 14.8876 139.335 14.8876C138.506 14.8876 137.834 15.5293 137.834 16.3209C137.834 17.1125 138.506 17.7542 139.335 17.7542Z" fill="#333333"/>
<path fill-rule="evenodd" clip-rule="evenodd" d="M114.164 13.292V5.85504C114.164 4.9626 114.928 4.23242 115.862 4.23242C116.344 4.23242 116.768 4.42172 117.08 4.7192C117.391 5.01668 117.59 5.42234 117.59 5.88209V10.2091V12.1833V12.7241C117.675 14.5901 118.779 15.4014 120.11 15.4014C121.44 15.4014 122.516 14.6172 122.63 12.8053V12.1021V10.2091V5.88209C122.63 4.98965 123.394 4.25947 124.328 4.25947C124.81 4.25947 125.234 4.44877 125.546 4.74625C125.857 5.04373 126.056 5.44938 126.056 5.90912V13.3461V13.5625C126.056 15.753 123.394 17.8083 120.11 17.8083C116.91 17.8083 114.277 15.8341 114.192 13.6977L114.164 13.292ZM111.474 4.50286H102.13C101.507 4.50286 100.997 4.98964 100.997 5.5846C100.997 6.17956 101.507 6.66635 102.13 6.66635H105.103V16.1046C105.103 16.997 105.867 17.7272 106.802 17.7272C107.736 17.7272 108.501 16.997 108.501 16.1046V6.66635H111.474C112.097 6.66635 112.606 6.17956 112.606 5.5846C112.606 4.98964 112.097 4.50286 111.474 4.50286ZM137.806 4.50286H128.462C127.839 4.50286 127.33 4.98964 127.33 5.5846C127.33 6.17956 127.839 6.66635 128.462 6.66635H131.435V16.1046C131.435 16.997 132.2 17.7272 133.134 17.7272C134.069 17.7272 134.833 16.997 134.833 16.1046V6.66635H137.806C138.429 6.66635 138.939 6.17956 138.939 5.5846C138.939 4.98964 138.429 4.50286 137.806 4.50286ZM155.446 7.72105C155.446 9.20845 154.257 10.4525 152.643 10.8311C155.644 11.3179 155.474 13.86 155.446 13.86V16.1046C155.446 16.997 154.681 17.7272 153.747 17.7272C152.813 17.7272 152.048 16.997 152.048 16.1046V13.86C152.048 13.86 152.246 12.048 149.726 12.048H147.575V16.1046C147.575 16.997 146.81 17.7272 145.876 17.7272C144.941 17.7272 144.177 16.997 144.177 16.1046V6.12548C144.177 5.23304 144.941 4.50286 145.876 4.50286H151.68C151.992 4.50286 152.331 4.5299 152.643 4.61103C154.257 4.98964 155.446 6.23365 155.446 7.72105ZM147.575 10.182H149.273H150.264C151.312 10.182 152.218 9.47888 152.331 8.47827V8.28897C152.331 8.15375 152.331 8.04558 152.303 7.91036C152.105 6.99087 151.227 6.36887 150.264 6.36887H148.226H147.575V10.182ZM158.108 5.85504V13.292L158.136 13.6977C158.221 15.8341 160.854 17.8083 164.054 17.8083C167.338 17.8083 170 15.753 170 13.5625V13.3461V5.90912C170 5.44938 169.802 5.04373 169.49 4.74625C169.179 4.44877 168.754 4.25947 168.273 4.25947C167.338 4.25947 166.574 4.98965 166.574 5.88209V10.2091V12.1021V12.8053C166.461 14.6172 165.385 15.4014 164.054 15.4014C162.723 15.4014 161.619 14.5901 161.534 12.7241V12.1833V10.2091V5.88209C161.534 5.42234 161.336 5.01668 161.024 4.7192C160.713 4.42172 160.288 4.23242 159.807 4.23242C158.872 4.23242 158.108 4.9626 158.108 5.85504Z" fill="#F4683F"/>
<path fill-rule="evenodd" clip-rule="evenodd" d="M57.5346 6.72035C56.7418 5.6386 55.5243 4.8273 54.1086 4.50277C53.4857 4.31347 52.6079 4.20529 51.6735 4.20529C50.7392 4.20529 49.8897 4.31347 49.2385 4.50277C47.8228 4.8273 46.6336 5.6386 45.8125 6.72035C45.1329 7.61279 44.7648 8.72158 44.7648 9.93855V12.0209C44.7648 13.2108 45.1612 14.3196 45.8125 15.2391C46.5769 16.2938 47.7095 17.051 49.0403 17.4026C49.6915 17.6189 50.6259 17.7812 51.6735 17.7812C52.7212 17.7812 53.6556 17.646 54.3068 17.4026C55.6376 17.051 56.7701 16.2668 57.5346 15.2391C58.2142 14.3196 58.6106 13.2379 58.6106 12.0209V9.93855C58.6106 8.72158 58.2142 7.61279 57.5346 6.72035ZM54.9297 9.69515V12.2102C54.9297 13.0215 54.6182 13.7787 54.1369 14.3737L53.967 14.536C52.7495 15.807 50.6259 15.807 49.4084 14.536L49.2385 14.3737C48.7288 13.7787 48.4457 13.0215 48.4457 12.2102V9.69515C48.4457 8.88384 48.7572 8.12662 49.2385 7.53166C49.2385 7.53166 49.2385 7.50462 49.2668 7.50462C50.5127 6.04426 52.8628 6.04426 54.1086 7.50462C54.1086 7.50462 54.1086 7.53166 54.1369 7.53166C54.6182 8.12662 54.9297 8.88384 54.9297 9.69515ZM30.3527 6.01719V16.2126C30.3527 17.051 31.0605 17.7271 31.9383 17.7271H37.2614C40.4892 17.7271 43.1225 15.2391 43.1225 12.1291V10.0467C43.1225 6.96372 40.5175 4.44866 37.2614 4.44866H31.9383C31.0605 4.50275 30.3527 5.17884 30.3527 6.01719ZM35.789 15.834H33.7504V6.3958H35.789C37.7994 6.3958 39.4133 7.93729 39.4133 9.85739V12.3724C39.4133 14.2925 37.7994 15.834 35.789 15.834ZM82.9893 17.7271C82.0549 17.7271 81.2905 16.997 81.2905 16.1045V6.12542C81.2905 5.23298 82.0549 4.5028 82.9893 4.5028C83.9237 4.5028 84.6882 5.23298 84.6882 6.12542V16.1045C84.6882 17.024 83.9237 17.7271 82.9893 17.7271ZM94.7967 10.8851L98.7607 15.5096C99.242 16.1045 99.2137 16.9429 98.6191 17.4297C98.0245 17.9164 97.1184 17.8353 96.6088 17.2404L92.5315 12.4807L91.5688 11.3989V16.1045C91.5688 16.997 90.8043 17.7271 89.8699 17.7271C88.9356 17.7271 88.1711 16.997 88.1711 16.1045V6.12542C88.1711 5.23298 88.9356 4.5028 89.8699 4.5028C90.8043 4.5028 91.5688 5.23298 91.5688 6.12542V10.3983L92.2767 9.55995L96.0425 5.01663C96.5238 4.42167 97.4299 4.34054 98.0528 4.80028C98.6757 5.26002 98.7607 6.12541 98.2793 6.72037L94.7967 10.8851ZM77.8927 6.34176V6.44994V6.6122V16.5102C77.8927 17.1863 77.3264 17.7271 76.6186 17.7271C75.9107 17.7271 75.3444 17.1863 75.3444 16.5102V8.23482V7.34238L75.0329 8.07255L75.0046 8.12664L71.437 15.8882C71.437 15.9152 71.4087 15.9693 71.3804 15.9963C71.0972 16.6454 70.3611 17.1051 69.5399 17.051C68.917 17.024 68.3507 16.6995 68.0393 16.2397L68.0392 16.2397C67.9543 16.1315 67.8694 16.0234 67.8128 15.8882L64.2452 8.12664L64.2168 8.07255L63.9054 7.34238V8.23482V16.5102C63.9054 17.1863 63.3391 17.7271 62.6312 17.7271C61.9234 17.7271 61.3571 17.1863 61.3571 16.5102V6.6122C61.3571 6.56754 61.3657 6.53107 61.3734 6.49829C61.3797 6.47152 61.3854 6.44721 61.3854 6.4229C61.3571 6.39585 61.3571 6.36881 61.3571 6.34176C61.3004 5.39524 62.2914 4.58393 63.5656 4.5028H63.5939H63.8204H63.9337H64.0186C64.4717 4.52984 64.8681 4.66506 65.2078 4.85436C65.6042 5.07071 65.8591 5.34115 66.0573 5.69272V5.71976C66.0573 5.73328 66.0644 5.7468 66.0714 5.76033C66.0785 5.77385 66.0856 5.78737 66.0856 5.80089L69.5399 13.5624L69.6249 13.7247L69.7098 13.5624L73.1642 5.80089C73.1642 5.77385 73.1642 5.74681 73.1925 5.71976V5.69272C73.3907 5.34115 73.6455 5.04367 74.0419 4.85436C74.3817 4.66506 74.7781 4.52984 75.2312 4.5028H75.3161H75.4294H75.6559H75.6842C76.9583 4.58393 77.9493 5.39524 77.8927 6.34176Z" fill="#333333"/>
</svg>
