<svg width="21" height="21" viewBox="0 0 21 21" fill="none" xmlns="http://www.w3.org/2000/svg">
<path d="M16.031 14.6168L20.314 18.8988L18.899 20.3138L14.617 16.0308C13.0237 17.308 11.042 18.0027 9 17.9998C4.032 17.9998 0 13.9678 0 8.99976C0 4.03176 4.032 -0.000244141 9 -0.000244141C13.968 -0.000244141 18 4.03176 18 8.99976C18.0029 11.0418 17.3082 13.0235 16.031 14.6168ZM14.025 13.8748C15.2941 12.5696 16.0029 10.8202 16 8.99976C16 5.13176 12.867 1.99976 9 1.99976C5.132 1.99976 2 5.13176 2 8.99976C2 12.8668 5.132 15.9998 9 15.9998C10.8204 16.0026 12.5699 15.2939 13.875 14.0248L14.025 13.8748Z" fill="#333333"/>
</svg>
